<svg id="Layer_2_copy" data-name="Layer 2 copy" xmlns="http://www.w3.org/2000/svg" viewBox="0 0 46.28 64.37"><defs><style>.cls-1{fill:#fff;}</style></defs><title>uPort-logo-white</title><path class="cls-1" d="M436.38,579.11l-21.32-32.55a1.89,1.89,0,0,0-3,0l-21.32,32.55a1.82,1.82,0,0,0,1.06,2.75l21.32,8a1.79,1.79,0,0,0,.92,0l21.32-8A1.82,1.82,0,0,0,436.38,579.11Zm-22.84-18.24a7.19,7.19,0,1,1-7.19,7.19A7.2,7.2,0,0,1,413.53,560.88Zm0,21.78c-7.16,0-14.77-2.07-14.77-5.92,0-2.31,2.75-4,6.5-5a9.07,9.07,0,0,0,.9,1.55c-3.66.86-5.74,2.27-5.74,3.4a2.26,2.26,0,0,0,1.2,1.6,1.45,1.45,0,0,1,.23-0.42c0.8-1,3.23-1.88,6.66-2.3a9,9,0,0,0,10,0c3.41,0.42,5.84,1.26,6.65,2.29a1.36,1.36,0,0,1,.24.43,2.26,2.26,0,0,0,1.2-1.6c0-1.13-2.08-2.54-5.75-3.4a8.93,8.93,0,0,0,.9-1.55c3.75,1,6.5,2.64,6.5,5C428.3,580.58,420.69,582.65,413.53,582.65Z" transform="translate(-390.39 -545.8)"/><path class="cls-1" d="M430.3,594.76a0.41,0.41,0,0,0-.35-0.4h-0.3a6.38,6.38,0,0,0-1.7.28,4.2,4.2,0,0,0-1.7,1.1v-0.91h0a0.42,0.42,0,0,0-.41-0.41h-1.57a0.42,0.42,0,0,0-.42.41h0v11a0.42,0.42,0,0,0,.42.42h1.57a0.42,0.42,0,0,0,.42-0.42v-5.7a2.91,2.91,0,0,1,1-2.48,4.6,4.6,0,0,1,2.63-1.15h0a0.42,0.42,0,0,0,.4-0.42v-1.27h0Z" transform="translate(-390.39 -545.8)"/><path class="cls-1" d="M409.91,595.55a6.65,6.65,0,0,0-4.07-1.14h-3.3a0.42,0.42,0,0,0-.42.42v14.93a0.42,0.42,0,0,0,.42.42h1.6a0.42,0.42,0,0,0,.42-0.42v-3.21a0.41,0.41,0,0,1,.36-0.41h0.94a6.42,6.42,0,0,0,4.05-1.21,4.15,4.15,0,0,0,1.64-3.47v-2.39A4.18,4.18,0,0,0,409.91,595.55ZM409,601.46a2.11,2.11,0,0,1-.8,1.8,4.08,4.08,0,0,1-2.45.61H405a0.42,0.42,0,0,1-.41-0.42v-6.38a0.42,0.42,0,0,1,.42-0.42h0.83a4.11,4.11,0,0,1,2.45.61,2.12,2.12,0,0,1,.8,1.8v2.39Z" transform="translate(-390.39 -545.8)"/><path class="cls-1" d="M431.21,603.07a3.88,3.88,0,0,0,.66,2.48,2.82,2.82,0,0,0,2.25.8h2a0.42,0.42,0,0,0,.42-0.42h0v-1.4h0a0.42,0.42,0,0,0-.42-0.42H434.2a0.54,0.54,0,0,1-.51-0.23,1.57,1.57,0,0,1-.08-0.61V597a0.41,0.41,0,0,1,.36-0.41h2.29a0.42,0.42,0,0,0,.41-0.42v-1.43a0.42,0.42,0,0,0-.42-0.42H434a0.42,0.42,0,0,1-.36-0.41v-3.17h0a0.42,0.42,0,0,0-.42-0.41h-1.57a0.42,0.42,0,0,0-.42.42h0v12.36Z" transform="translate(-390.39 -545.8)"/><path class="cls-1" d="M417.5,606.38a5.27,5.27,0,0,1-5.26-5.26v-1.73a5.26,5.26,0,1,1,10.52,0v1.73A5.27,5.27,0,0,1,417.5,606.38Zm0-9.78a2.79,2.79,0,0,0-2.79,2.79v1.73a2.79,2.79,0,1,0,5.58,0v-1.73A2.79,2.79,0,0,0,417.5,596.6Z" transform="translate(-390.39 -545.8)"/><path class="cls-1" d="M390.39,594.82a0.42,0.42,0,0,1,.42-0.42h1.64a0.42,0.42,0,0,1,.42.42v6.3a2.79,2.79,0,1,0,5.58,0v-6.3a0.42,0.42,0,0,1,.42-0.42h1.64a0.42,0.42,0,0,1,.42.42v6.3a5.26,5.26,0,0,1-10.52,0v-6.3Z" transform="translate(-390.39 -545.8)"/></svg>